<mxfile host="65bd71144e">
    <diagram id="09P5HGLGrYz_mYvWhXRL" name="Page-1">
        <mxGraphModel dx="490" dy="466" grid="1" gridSize="10" guides="1" tooltips="1" connect="1" arrows="1" fold="1" page="1" pageScale="1" pageWidth="850" pageHeight="1100" math="0" shadow="0">
            <root>
                <mxCell id="0"/>
                <mxCell id="1" parent="0"/>
                <mxCell id="2" value="Skola" style="rounded=0;whiteSpace=wrap;html=1;" parent="1" vertex="1">
                    <mxGeometry x="200" y="30" width="120" height="40" as="geometry"/>
                </mxCell>
                <mxCell id="3" value="antalElever: int&lt;br&gt;intelligens: int&lt;br&gt;plats: string&lt;br&gt;namn: string&lt;br&gt;poäng: int" style="rounded=0;whiteSpace=wrap;html=1;" parent="1" vertex="1">
                    <mxGeometry x="200" y="70" width="120" height="70" as="geometry"/>
                </mxCell>
                <mxCell id="4" value="attackera(): void&lt;br&gt;Tävla(): void" style="rounded=0;whiteSpace=wrap;html=1;" parent="1" vertex="1">
                    <mxGeometry x="200" y="140" width="120" height="60" as="geometry"/>
                </mxCell>
                <mxCell id="5" value="LBS" style="rounded=0;whiteSpace=wrap;html=1;" parent="1" vertex="1">
                    <mxGeometry x="360" y="240" width="120" height="40" as="geometry"/>
                </mxCell>
                <mxCell id="6" value="" style="rounded=0;whiteSpace=wrap;html=1;" parent="1" vertex="1">
                    <mxGeometry x="360" y="280" width="120" height="60" as="geometry"/>
                </mxCell>
                <mxCell id="7" value="" style="rounded=0;whiteSpace=wrap;html=1;" parent="1" vertex="1">
                    <mxGeometry x="360" y="340" width="120" height="60" as="geometry"/>
                </mxCell>
                <mxCell id="8" value="NTI" style="rounded=0;whiteSpace=wrap;html=1;" parent="1" vertex="1">
                    <mxGeometry x="40" y="240" width="120" height="40" as="geometry"/>
                </mxCell>
                <mxCell id="9" value="" style="rounded=0;whiteSpace=wrap;html=1;" parent="1" vertex="1">
                    <mxGeometry x="40" y="280" width="120" height="60" as="geometry"/>
                </mxCell>
                <mxCell id="10" value="" style="rounded=0;whiteSpace=wrap;html=1;" parent="1" vertex="1">
                    <mxGeometry x="40" y="340" width="120" height="60" as="geometry"/>
                </mxCell>
                <mxCell id="11" value="" style="endArrow=classic;html=1;entryX=0.5;entryY=1;entryDx=0;entryDy=0;" parent="1" edge="1">
                    <mxGeometry width="50" height="50" relative="1" as="geometry">
                        <mxPoint x="100.00000000000011" y="240.0000000000001" as="sourcePoint"/>
                        <mxPoint x="260" y="199.9999999999999" as="targetPoint"/>
                        <Array as="points">
                            <mxPoint x="100" y="220"/>
                            <mxPoint x="260" y="220"/>
                        </Array>
                    </mxGeometry>
                </mxCell>
                <mxCell id="12" value="" style="endArrow=classic;html=1;exitX=0.5;exitY=0;exitDx=0;exitDy=0;" parent="1" edge="1">
                    <mxGeometry width="50" height="50" relative="1" as="geometry">
                        <mxPoint x="420" y="240.0000000000001" as="sourcePoint"/>
                        <mxPoint x="260" y="200.0000000000001" as="targetPoint"/>
                        <Array as="points">
                            <mxPoint x="420" y="220"/>
                            <mxPoint x="260" y="220"/>
                        </Array>
                    </mxGeometry>
                </mxCell>
            </root>
        </mxGraphModel>
    </diagram>
</mxfile>